<svg width="24" height="25" viewBox="0 0 24 25" fill="none" xmlns="http://www.w3.org/2000/svg">
<path d="M20.3479 8.5072L9.7479 19.1072C9.65402 19.2019 9.52622 19.2551 9.3929 19.2551C9.25958 19.2551 9.13178 19.2019 9.0379 19.1072L3.6479 13.7172C3.55324 13.6234 3.5 13.4956 3.5 13.3622C3.5 13.2289 3.55324 13.1011 3.6479 13.0072L4.3479 12.3072C4.44178 12.2126 4.56958 12.1593 4.7029 12.1593C4.83622 12.1593 4.96402 12.2126 5.0579 12.3072L9.3879 16.6372L18.9379 7.0872C19.1357 6.89541 19.4501 6.89541 19.6479 7.0872L20.3479 7.7972C20.4426 7.89108 20.4958 8.01888 20.4958 8.1522C20.4958 8.28552 20.4426 8.41331 20.3479 8.5072Z" fill="black"/>
</svg>
