<svg width="111" height="24" viewBox="0 0 111 24" fill="none" xmlns="http://www.w3.org/2000/svg">
<path d="M7.96875 23.3125C5.44792 23.3125 3.5 22.625 2.125 21.25C0.760417 19.8646 0.078125 17.9271 0.078125 15.4375H4.375C4.375 16.6875 4.69271 17.6615 5.32812 18.3594C5.97396 19.0469 6.88021 19.3906 8.04688 19.3906C9.22396 19.3906 10.1302 19.0469 10.7656 18.3594C11.4115 17.6719 11.7344 16.6979 11.7344 15.4375V0.8125H15.8594V15.4375C15.8594 17.9375 15.1615 19.875 13.7656 21.25C12.3802 22.625 10.4479 23.3125 7.96875 23.3125ZM6.65625 4.60938V0.8125H13.9375V4.60938H6.65625ZM19.9844 23V0.8125H24.1094V23H19.9844ZM19.9844 23V19.2031H35.2031V23H19.9844ZM36.9375 23L43.3438 0.8125H48.4062L54.8125 23H50.3594L46.0156 6.23438H45.7344L41.3906 23H36.9375ZM40.1719 18.7969V14.9844H51.4219V18.7969H40.1719ZM65.75 23L61.8438 5.65625H60.1406V0.8125H63.5L67.4062 18.1562H68.4531V23H65.75ZM57.2969 23V0.8125H61.2656V23H57.2969ZM67.9844 23V0.8125H71.9531V23H67.9844ZM85.6875 23.3125C78.6146 23.3125 75.0781 19.5 75.0781 11.875C75.0781 8.26042 75.9688 5.46354 77.75 3.48438C79.5312 1.49479 82.0521 0.5 85.3125 0.5C86.7812 0.5 88.0833 0.739583 89.2188 1.21875C90.3542 1.6875 91.2135 2.35938 91.7969 3.23438L89.4844 6.26562C89.0156 5.68229 88.4167 5.23438 87.6875 4.92188C86.9688 4.59896 86.1875 4.4375 85.3438 4.4375C83.5521 4.4375 82.1146 5.07292 81.0312 6.34375C79.9583 7.60417 79.4219 9.39583 79.4219 11.7188C79.4219 16.8229 81.6875 19.375 86.2188 19.375C87.7292 19.375 89.2188 19.0625 90.6875 18.4375L91.4062 22.25C89.5938 22.9583 87.6875 23.3125 85.6875 23.3125ZM94.9844 23V0.8125H99.1094V23H94.9844ZM94.9844 23V19.2031H110.203V23H94.9844ZM94.9844 13.7969V9.98438H107.391V13.7969H94.9844ZM94.9844 4.60938V0.8125H110.203V4.60938H94.9844Z" fill="white"/>
</svg>
